#tb 0: 1/25
#media_type 0: video
#codec_id 0: rawvideo
#dimensions 0: 416x240
#sar 0: 0/1
0,          0,          0,        1,   149760, 0xdb5e3b56
0,          1,          1,        1,   149760, 0xd5320970
0,          2,          2,        1,   149760, 0x9387ed18
0,          3,          3,        1,   149760, 0x3ab6fde8
0,          4,          4,        1,   149760, 0xf5d39a39
0,          5,          5,        1,   149760, 0xf8c15b34
0,          6,          6,        1,   149760, 0x12261fdc
0,          7,          7,        1,   149760, 0x8ed03f57
0,          8,          8,        1,   149760, 0x04d29f74
0,          9,          9,        1,   149760, 0x86daf75e
0,         10,         10,        1,   149760, 0x85d817a4
0,         11,         11,        1,   149760, 0xf9c97006
0,         12,         12,        1,   149760, 0x60baf6ad
0,         13,         13,        1,   149760, 0x7272aa6b
0,         14,         14,        1,   149760, 0x18e00ede
0,         15,         15,        1,   149760, 0x60592cfe
0,         16,         16,        1,   149760, 0x7d49650d
0,         17,         17,        1,   149760, 0x865e7b22
0,         18,         18,        1,   149760, 0xad6a33e4
0,         19,         19,        1,   149760, 0x7c8ab573
0,         20,         20,        1,   149760, 0x0c7d8afa
0,         21,         21,        1,   149760, 0xb0e567a3
0,         22,         22,        1,   149760, 0x3c2ccbf1
0,         23,         23,        1,   149760, 0x0804aead
0,         24,         24,        1,   149760, 0x0dcb6756
0,         25,         25,        1,   149760, 0x99bc82dd
0,         26,         26,        1,   149760, 0x4d2907f1
0,         27,         27,        1,   149760, 0xc4c330ff
0,         28,         28,        1,   149760, 0x6c73cef4
0,         29,         29,        1,   149760, 0xbaa82ab1
0,         30,         30,        1,   149760, 0xeea3d591
0,         31,         31,        1,   149760, 0x8240d007
0,         32,         32,        1,   149760, 0x698f11e4
0,         33,         33,        1,   149760, 0x46700948
0,         34,         34,        1,   149760, 0x819e62d9
0,         35,         35,        1,   149760, 0x0cfe1471
0,         36,         36,        1,   149760, 0xf30dc9da
0,         37,         37,        1,   149760, 0x81ea3390
0,         38,         38,        1,   149760, 0x85bc8dec
0,         39,         39,        1,   149760, 0x01d3451a
0,         40,         40,        1,   149760, 0x626dc94b
0,         41,         41,        1,   149760, 0xf50f2a66
0,         42,         42,        1,   149760, 0x6294bc3e
0,         43,         43,        1,   149760, 0x41427bc1
0,         44,         44,        1,   149760, 0xe200ecf3
0,         45,         45,        1,   149760, 0xc44785c5
0,         46,         46,        1,   149760, 0xadc8c3cf
0,         47,         47,        1,   149760, 0x6c57fb6d
0,         48,         48,        1,   149760, 0x139cddc1
0,         49,         49,        1,   149760, 0xc5c9def6
0,         50,         50,        1,   149760, 0xa8da3f7b
0,         51,         51,        1,   149760, 0x21823d13
0,         52,         52,        1,   149760, 0x00e265fd
0,         53,         53,        1,   149760, 0x289f21d2
0,         54,         54,        1,   149760, 0xa96d8d0b
0,         55,         55,        1,   149760, 0x4e50b434
0,         56,         56,        1,   149760, 0x4e469eae
0,         57,         57,        1,   149760, 0x62a258af
0,         58,         58,        1,   149760, 0xc61beb2b
0,         59,         59,        1,   149760, 0x15d7853b
0,         60,         60,        1,   149760, 0xd5b8941b
0,         61,         61,        1,   149760, 0x6312a7c5
0,         62,         62,        1,   149760, 0x2da74d59
0,         63,         63,        1,   149760, 0x5fd72bc7
0,         64,         64,        1,   149760, 0x4035f027
0,         65,         65,        1,   149760, 0xbe9992e2
0,         66,         66,        1,   149760, 0xb96093b8
0,         67,         67,        1,   149760, 0x1024bd43
0,         68,         68,        1,   149760, 0x1376a3fe
0,         69,         69,        1,   149760, 0xdf93ec7f
0,         70,         70,        1,   149760, 0x17d27bfa
0,         71,         71,        1,   149760, 0x440cb7aa
0,         72,         72,        1,   149760, 0x8b230df3
0,         73,         73,        1,   149760, 0x2526130e
0,         74,         74,        1,   149760, 0x77926a77
0,         75,         75,        1,   149760, 0x8562bddc
0,         76,         76,        1,   149760, 0xda86bb2e
0,         77,         77,        1,   149760, 0x2b4f921b
0,         78,         78,        1,   149760, 0xf13bca77
0,         79,         79,        1,   149760, 0x53e76b99
0,         80,         80,        1,   149760, 0x29a2f5bb
0,         81,         81,        1,   149760, 0x83a8c4f8
0,         82,         82,        1,   149760, 0xbe6d8f45
0,         83,         83,        1,   149760, 0x03d3bf96
0,         84,         84,        1,   149760, 0x3a0bd29e
0,         85,         85,        1,   149760, 0xdb656a22
0,         86,         86,        1,   149760, 0x557b020e
0,         87,         87,        1,   149760, 0x573ee5f2
0,         88,         88,        1,   149760, 0x5484faea
0,         89,         89,        1,   149760, 0x06bb73ae
0,         90,         90,        1,   149760, 0x3d4049fa
0,         91,         91,        1,   149760, 0xe574eedb
0,         92,         92,        1,   149760, 0x1c46205d
0,         93,         93,        1,   149760, 0x0c5c322e
0,         94,         94,        1,   149760, 0x2bbeed95
0,         95,         95,        1,   149760, 0x225897dc
0,         96,         96,        1,   149760, 0x0a39aa8b
0,         97,         97,        1,   149760, 0x3242e156
0,         98,         98,        1,   149760, 0x1790ee85
0,         99,         99,        1,   149760, 0x55ef9dac
0,        100,        100,        1,   149760, 0x98e1c49e
0,        101,        101,        1,   149760, 0x479a84b5
0,        102,        102,        1,   149760, 0x1711b4f9
0,        103,        103,        1,   149760, 0xd7d25fce
0,        104,        104,        1,   149760, 0x7bde1977
0,        105,        105,        1,   149760, 0x25777a4d
0,        106,        106,        1,   149760, 0x7b55ed5f
0,        107,        107,        1,   149760, 0xb28e59e6
0,        108,        108,        1,   149760, 0x8314281a
0,        109,        109,        1,   149760, 0x3a5ceeb3
0,        110,        110,        1,   149760, 0x33760ed8
0,        111,        111,        1,   149760, 0x19332370
0,        112,        112,        1,   149760, 0xf25d1f68
0,        113,        113,        1,   149760, 0x4d665712
0,        114,        114,        1,   149760, 0x3e310eb7
0,        115,        115,        1,   149760, 0xafa3c1bb
0,        116,        116,        1,   149760, 0xf0b7a7ec
0,        117,        117,        1,   149760, 0xa88a747a
0,        118,        118,        1,   149760, 0x7b7e6e85
0,        119,        119,        1,   149760, 0xbc8f8ede
0,        120,        120,        1,   149760, 0x449f7d2f
0,        121,        121,        1,   149760, 0x9bc70c53
0,        122,        122,        1,   149760, 0x8544dc98
0,        123,        123,        1,   149760, 0xef687641
0,        124,        124,        1,   149760, 0x0c962219
0,        125,        125,        1,   149760, 0x4325ae76
0,        126,        126,        1,   149760, 0xcec7a18c
0,        127,        127,        1,   149760, 0x941ee8a2
0,        128,        128,        1,   149760, 0x3eaf3f55
0,        129,        129,        1,   149760, 0x5b571274
0,        130,        130,        1,   149760, 0x0532488a
0,        131,        131,        1,   149760, 0x893fbaf7
0,        132,        132,        1,   149760, 0xd0155ddf
0,        133,        133,        1,   149760, 0x83ec86ee
0,        134,        134,        1,   149760, 0xedffba86
0,        135,        135,        1,   149760, 0x838c19de
0,        136,        136,        1,   149760, 0x8482639d
0,        137,        137,        1,   149760, 0x9501004d
0,        138,        138,        1,   149760, 0x1db0525f
0,        139,        139,        1,   149760, 0x8b431467
0,        140,        140,        1,   149760, 0x972e7d24
0,        141,        141,        1,   149760, 0xd8151b94
0,        142,        142,        1,   149760, 0x1ded6a85
0,        143,        143,        1,   149760, 0x03497fe2
0,        144,        144,        1,   149760, 0x07427bb7
0,        145,        145,        1,   149760, 0x33c085ef
0,        146,        146,        1,   149760, 0x0feda1d0
0,        147,        147,        1,   149760, 0xf86930e7
0,        148,        148,        1,   149760, 0x42c2ea09
0,        149,        149,        1,   149760, 0xcfb76b86
0,        150,        150,        1,   149760, 0x672e2fce
0,        151,        151,        1,   149760, 0xb006ec79
0,        152,        152,        1,   149760, 0xdbc8511c
0,        153,        153,        1,   149760, 0x3278b299
0,        154,        154,        1,   149760, 0xd19fe063
0,        155,        155,        1,   149760, 0x13bb8951
0,        156,        156,        1,   149760, 0xec5cfe36
0,        157,        157,        1,   149760, 0x9381a0e7
0,        158,        158,        1,   149760, 0x304cf3c0
0,        159,        159,        1,   149760, 0xd380511c
0,        160,        160,        1,   149760, 0xbd1abe11
0,        161,        161,        1,   149760, 0x7b220293
0,        162,        162,        1,   149760, 0xbbe85931
0,        163,        163,        1,   149760, 0x316e422a
0,        164,        164,        1,   149760, 0x5e5db530
0,        165,        165,        1,   149760, 0xc48d6ddb
0,        166,        166,        1,   149760, 0x9adf5d65
0,        167,        167,        1,   149760, 0x2adb94de
0,        168,        168,        1,   149760, 0xbc052746
0,        169,        169,        1,   149760, 0xac4d3569
0,        170,        170,        1,   149760, 0x3cd8fdee
0,        171,        171,        1,   149760, 0x34bfd6ed
0,        172,        172,        1,   149760, 0xf72fec4b
0,        173,        173,        1,   149760, 0xf8c5b374
0,        174,        174,        1,   149760, 0x28ff7382
0,        175,        175,        1,   149760, 0xac3b49f4
0,        176,        176,        1,   149760, 0x9d995a62
0,        177,        177,        1,   149760, 0xe0b292f1
0,        178,        178,        1,   149760, 0x4edbd05d
0,        179,        179,        1,   149760, 0x4fd5038b
0,        180,        180,        1,   149760, 0x899d2101
0,        181,        181,        1,   149760, 0x0733f804
0,        182,        182,        1,   149760, 0xe4297100
0,        183,        183,        1,   149760, 0x5aff9292
0,        184,        184,        1,   149760, 0x41eda25c
0,        185,        185,        1,   149760, 0xb4d7aaf2
0,        186,        186,        1,   149760, 0xbd99fade
0,        187,        187,        1,   149760, 0xdea6d265
0,        188,        188,        1,   149760, 0xa2d3bdcd
0,        189,        189,        1,   149760, 0x38f8a729
0,        190,        190,        1,   149760, 0x0a356f1b
0,        191,        191,        1,   149760, 0x865411a5
0,        192,        192,        1,   149760, 0xd6720a40
0,        193,        193,        1,   149760, 0xf40589f9
0,        194,        194,        1,   149760, 0x0646106d
0,        195,        195,        1,   149760, 0x88e55688
0,        196,        196,        1,   149760, 0xda2fce82
0,        197,        197,        1,   149760, 0xc823200b
0,        198,        198,        1,   149760, 0xc9513041
0,        199,        199,        1,   149760, 0x798d0e88
0,        200,        200,        1,   149760, 0xb6d4f15a
0,        201,        201,        1,   149760, 0xab5b24a4
0,        202,        202,        1,   149760, 0x9888aa8d
0,        203,        203,        1,   149760, 0xbf13bbf4
0,        204,        204,        1,   149760, 0x5450bb23
0,        205,        205,        1,   149760, 0x12aec398
0,        206,        206,        1,   149760, 0xa5e1579a
0,        207,        207,        1,   149760, 0xbeeb07e1
0,        208,        208,        1,   149760, 0x209a9f1b
0,        209,        209,        1,   149760, 0x4d3d1c1a
0,        210,        210,        1,   149760, 0xb4edd703
0,        211,        211,        1,   149760, 0xc71adf66
0,        212,        212,        1,   149760, 0x40006d36
0,        213,        213,        1,   149760, 0x1c5485c9
0,        214,        214,        1,   149760, 0xa3d8c9a1
0,        215,        215,        1,   149760, 0x9bfac6de
0,        216,        216,        1,   149760, 0xed3b0782
0,        217,        217,        1,   149760, 0x8f075ce2
0,        218,        218,        1,   149760, 0xb744fa07
0,        219,        219,        1,   149760, 0xa9356722
0,        220,        220,        1,   149760, 0xd792bd01
0,        221,        221,        1,   149760, 0xa124618b
0,        222,        222,        1,   149760, 0x7492bb54
0,        223,        223,        1,   149760, 0x67dcefca
0,        224,        224,        1,   149760, 0x8a7f716d
0,        225,        225,        1,   149760, 0x7775bb01
0,        226,        226,        1,   149760, 0xe4a845e5
0,        227,        227,        1,   149760, 0x79a3962d
0,        228,        228,        1,   149760, 0x4f395ad7
0,        229,        229,        1,   149760, 0x3948ce05
0,        230,        230,        1,   149760, 0x037e6c07
0,        231,        231,        1,   149760, 0x91881ae9
0,        232,        232,        1,   149760, 0x937e2545
0,        233,        233,        1,   149760, 0xdc892763
0,        234,        234,        1,   149760, 0x96ebd47f
0,        235,        235,        1,   149760, 0xfecbf8c6
0,        236,        236,        1,   149760, 0xe1443808
0,        237,        237,        1,   149760, 0xe0cd36c0
0,        238,        238,        1,   149760, 0xb485eb4d
0,        239,        239,        1,   149760, 0x36edf31f
0,        240,        240,        1,   149760, 0x988bb97f
0,        241,        241,        1,   149760, 0xc266c616
0,        242,        242,        1,   149760, 0x7ec4c3f4
0,        243,        243,        1,   149760, 0xedf5e2ff
0,        244,        244,        1,   149760, 0xbdd351e3
0,        245,        245,        1,   149760, 0x900e194e
0,        246,        246,        1,   149760, 0x5dc7daad
0,        247,        247,        1,   149760, 0x1ce37e7e
0,        248,        248,        1,   149760, 0x15982333
0,        249,        249,        1,   149760, 0x976bb72e
0,        250,        250,        1,   149760, 0x0b42e05e
0,        251,        251,        1,   149760, 0xffbcc758
0,        252,        252,        1,   149760, 0x6377782d
0,        253,        253,        1,   149760, 0x8aa42a80
0,        254,        254,        1,   149760, 0x8e0ab3fd
0,        255,        255,        1,   149760, 0xdfdd49d4
0,        256,        256,        1,   149760, 0x2659a6cb
0,        257,        257,        1,   149760, 0x1e9a3d51
0,        258,        258,        1,   149760, 0x7a66d80d
0,        259,        259,        1,   149760, 0x5756a9e9
0,        260,        260,        1,   149760, 0x0fa8d6dd
0,        261,        261,        1,   149760, 0x885799a5
0,        262,        262,        1,   149760, 0xb8d02df7
0,        263,        263,        1,   149760, 0xd2e2800c
0,        264,        264,        1,   149760, 0xa26ee27a
0,        265,        265,        1,   149760, 0x7c86750f
0,        266,        266,        1,   149760, 0xb4694ea1
0,        267,        267,        1,   149760, 0x89d0b75a
0,        268,        268,        1,   149760, 0x92b9af80
0,        269,        269,        1,   149760, 0x107dd610
0,        270,        270,        1,   149760, 0x8ad35f55
0,        271,        271,        1,   149760, 0xccc32cb1
0,        272,        272,        1,   149760, 0xd08ce4ff
0,        273,        273,        1,   149760, 0x30bd8d0a
0,        274,        274,        1,   149760, 0x01b74d14
0,        275,        275,        1,   149760, 0x79aa7a3b
0,        276,        276,        1,   149760, 0x5f7a40fc
0,        277,        277,        1,   149760, 0x8837643e
0,        278,        278,        1,   149760, 0xb6b66baa
0,        279,        279,        1,   149760, 0xf4ae17cd
0,        280,        280,        1,   149760, 0xe0d2546a
0,        281,        281,        1,   149760, 0x0e118751
0,        282,        282,        1,   149760, 0x0732e19c
0,        283,        283,        1,   149760, 0x9cfe27b3
0,        284,        284,        1,   149760, 0x1c77b242
0,        285,        285,        1,   149760, 0x25be3938
0,        286,        286,        1,   149760, 0x735ce859
0,        287,        287,        1,   149760, 0x2bca0f6e
0,        288,        288,        1,   149760, 0xcce3eb48
0,        289,        289,        1,   149760, 0xf3556dd8
0,        290,        290,        1,   149760, 0xcb2cecb4
0,        291,        291,        1,   149760, 0x9c489742
0,        292,        292,        1,   149760, 0xbe25370d
0,        293,        293,        1,   149760, 0x798ff17f
0,        294,        294,        1,   149760, 0x2f1a46c4
0,        295,        295,        1,   149760, 0x7d119bd6
0,        296,        296,        1,   149760, 0x42ceab74
0,        297,        297,        1,   149760, 0x6fcbe2ef
0,        298,        298,        1,   149760, 0x290fe6da
0,        299,        299,        1,   149760, 0x6b280a24
